<svg width="73" height="72" viewBox="0 0 73 72" fill="none" xmlns="http://www.w3.org/2000/svg">
<rect x="1" y="0.5" width="71" height="71" rx="11.5" fill="white" stroke="#E0E0E0"/>
<path opacity="0.05" d="M29.6806 58.1344C26.6191 56.0339 23.7596 53.6529 21.1394 51.0223C18.573 48.4471 16.2472 45.643 14.1909 42.6447C12.4311 40.8431 11.4362 38.4309 11.4141 35.9126C11.411 34.663 11.6547 33.425 12.1312 32.2697C12.6077 31.1145 13.3077 30.0647 14.1909 29.1806C18.6358 23.3458 23.8458 18.1358 29.6806 13.6909C31.4826 11.9317 33.8946 10.9369 36.4127 10.9141C37.6624 10.9109 38.9004 11.1546 40.0557 11.6311C41.2109 12.1076 42.2607 12.8076 43.1448 13.6909C45.8817 15.848 48.495 18.1573 50.9725 20.6081C53.7007 23.305 56.2596 26.168 58.6345 29.1806C60.3948 30.9818 61.3898 33.3942 61.4113 35.9126C61.4144 37.1623 61.1708 38.4003 60.6942 39.5556C60.2177 40.7108 59.5178 41.7606 58.6345 42.6447C56.1481 45.8048 53.4585 48.7995 50.5827 51.6098C48.2205 53.915 45.7375 56.0929 43.1441 58.1344C41.997 59.2611 40.5911 60.0893 39.0496 60.5464C38.1924 60.7939 37.3042 60.9177 36.412 60.914C35.2916 60.8879 34.1838 60.6714 33.1361 60.2736C31.8569 59.7905 30.6834 59.0641 29.6806 58.1344Z" fill="url(#paint0_linear_234_60322)" stroke="#707070" stroke-width="0.278443"/>
<path d="M21.9955 36.9527C22.0583 35.8798 22.9841 35.1006 23.6953 34.5854C30.5286 29.6385 36.4403 29.5483 36.4403 29.5483C41.4761 29.7344 46.296 31.6409 50.0965 34.95C51.1683 35.8984 51.2939 36.6654 51.3102 37.0138C51.2905 37.4279 51.1892 37.8341 51.0122 38.209C50.8352 38.5839 50.5858 38.9202 50.2785 39.1985C48.5604 41.0375 46.4987 42.5221 44.2099 43.5685C41.9586 44.5136 39.55 45.0283 37.109 45.0857C34.5032 45.103 31.9214 44.5867 29.5226 43.5685C27.211 42.6064 25.1084 41.2042 23.3318 39.4398C22.5834 38.692 21.9403 37.9023 21.9955 36.9527Z" fill="white" stroke="#2D2D2D" stroke-width="0.581511" stroke-miterlimit="10"/>
<path d="M36.7743 45.0239C41.048 45.0239 44.5125 41.5594 44.5125 37.2858C44.5125 33.0121 41.048 29.5476 36.7743 29.5476C32.5006 29.5476 29.0361 33.0121 29.0361 37.2858C29.0361 41.5594 32.5006 45.0239 36.7743 45.0239Z" fill="#86BCFF"/>
<path d="M36.7743 45.0239C41.048 45.0239 44.5125 41.5594 44.5125 37.2858C44.5125 33.0121 41.048 29.5476 36.7743 29.5476C32.5006 29.5476 29.0361 33.0121 29.0361 37.2858C29.0361 41.5594 32.5006 45.0239 36.7743 45.0239Z" stroke="#2D2D2D" stroke-width="0.581511" stroke-miterlimit="10"/>
<path d="M36.8254 40.0672C38.5012 40.0672 39.8597 38.7087 39.8597 37.0329C39.8597 35.357 38.5012 33.9985 36.8254 33.9985C35.1495 33.9985 33.791 35.357 33.791 37.0329C33.791 38.7087 35.1495 40.0672 36.8254 40.0672Z" fill="#FF8E93"/>
<path d="M36.8254 40.0672C38.5012 40.0672 39.8597 38.7087 39.8597 37.0329C39.8597 35.357 38.5012 33.9985 36.8254 33.9985C35.1495 33.9985 33.791 35.357 33.791 37.0329C33.791 38.7087 35.1495 40.0672 36.8254 40.0672Z" stroke="white" stroke-width="0.581511" stroke-miterlimit="10"/>
<path d="M22.7244 31.7324C21.8175 31.3113 21.0524 30.6358 20.5221 29.7881C19.9918 28.9403 19.7191 27.9568 19.7372 26.957" stroke="#2D2D2D" stroke-width="0.581511" stroke-miterlimit="10" stroke-linecap="round"/>
<path d="M28.8544 28.4143C28.1404 27.8735 27.5787 27.1568 27.2242 26.3343C26.8696 25.5118 26.7343 24.6114 26.8313 23.7209" stroke="#2D2D2D" stroke-width="0.581511" stroke-miterlimit="10" stroke-linecap="round"/>
<path d="M36.2168 27.3623C36.5946 25.4658 36.5946 23.5134 36.2168 21.6169" stroke="#2D2D2D" stroke-width="0.581511" stroke-miterlimit="10" stroke-linecap="round"/>
<path d="M43.4199 28.8984C44.2723 28.4587 44.9917 27.7993 45.5038 26.9884C46.0159 26.1775 46.3021 25.2445 46.3327 24.2859" stroke="#2D2D2D" stroke-width="0.581511" stroke-miterlimit="10" stroke-linecap="round"/>
<path d="M49.8135 31.8947C50.7001 31.655 51.496 31.1583 52.1008 30.467C52.7055 29.7757 53.0921 28.9209 53.2118 28.0103" stroke="#2D2D2D" stroke-width="0.581511" stroke-miterlimit="10" stroke-linecap="round"/>
<defs>
<linearGradient id="paint0_linear_234_60322" x1="36.4127" y1="10.9141" x2="36.4127" y2="60.9141" gradientUnits="userSpaceOnUse">
<stop stop-color="#1778F2"/>
<stop offset="1" stop-color="#F40009"/>
</linearGradient>
</defs>
</svg>
