<svg width="73" height="72" viewBox="0 0 73 72" fill="none" xmlns="http://www.w3.org/2000/svg">
<rect x="1" y="0.5" width="71" height="71" rx="11.5" fill="white" stroke="#E0E0E0"/>
<path d="M33.498 51.1907L38.9244 60.8212C39.7578 60.5434 45.8689 59.4372 46.8071 55.3698C46.823 55.9358 46.9099 54.9261 46.8071 55.3698C44.0844 51.2573 41.3624 47.1425 38.6411 43.0254L33.498 51.1907Z" fill="white"/>
<path d="M40.1973 44.3567C41.0314 46.3286 42.0081 48.2371 43.1195 50.0671C43.9709 51.4709 44.9083 52.8207 45.9264 54.1088C47.8112 56.4886 47.2084 55.8178 47.3952 56.0067" stroke="#2D2D2D" stroke-width="0.694444" stroke-miterlimit="10" stroke-linecap="round"/>
<path d="M47.1883 38.0097C46.4668 48.1278 36.1619 56.4458 30.4341 54.8667C28.1816 54.0854 26.2236 52.6309 24.8251 50.7C23.6934 49.2371 22.8041 47.6019 22.1911 45.8569C21.6008 44.0861 21.6008 43.9014 21.407 43.5118C21.2009 43.0145 20.8531 42.5888 20.407 42.2875C19.7779 41.9042 19.38 42.1229 18.6223 41.7778C18.3577 41.6576 17.5987 41.309 17.3904 40.7583C16.889 39.4389 20.055 38.1042 21.0015 34.6396C21.1669 34.001 21.2525 33.3444 21.2564 32.6847C21.5098 28.5486 27.8612 19.4778 35.3279 19.9826C42.7807 20.4868 47.739 30.2861 47.1883 38.0076" fill="white"/>
<path d="M47.1883 38.0097C46.4668 48.1278 36.1619 56.4458 30.4341 54.8667C28.1816 54.0854 26.2236 52.6309 24.8251 50.7C23.6934 49.2371 22.8041 47.6019 22.1911 45.8569C21.6008 44.0861 21.6008 43.9014 21.407 43.5118C21.2009 43.0145 20.8531 42.5888 20.407 42.2875C19.7779 41.9042 19.38 42.1229 18.6223 41.7778C18.3577 41.6576 17.5987 41.309 17.3904 40.7583C16.889 39.4389 20.055 38.1042 21.0015 34.6396C21.1669 34.001 21.2525 33.3444 21.2564 32.6847C21.5098 28.5486 27.8612 19.4778 35.3279 19.9826C42.78 20.4889 47.7383 30.2882 47.1883 38.0097Z" stroke="#2D2D2D" stroke-width="0.694444" stroke-miterlimit="10"/>
<path d="M22.6401 21.3096C20.9561 28.1388 32.4443 38.0423 39.1436 35.7041C41.2596 34.9652 42.8304 33.0284 43.9665 33.7423C45.0901 34.4485 45.1714 37.3534 43.9887 39.2617C42.8665 41.0673 41.3867 40.8013 40.5512 42.2631C39.1915 44.6429 40.8061 49.3673 43.2131 50.0485C46.4637 50.9679 51.745 44.6798 53.7297 38.6346C55.1059 34.6972 55.145 30.4159 53.8408 26.4541C50.8061 17.5936 42.1325 14.8311 41.3679 14.6138C35.0485 12.8166 29.5894 15.0207 27.7776 15.8464C23.7735 17.9992 22.8964 20.2673 22.6387 21.3096" fill="#474747"/>
<path d="M22.6401 21.3096C20.9561 28.1388 32.4443 38.0423 39.1436 35.7041C41.2596 34.9652 42.8304 33.0284 43.9665 33.7423C45.0901 34.4485 45.1714 37.3534 43.9887 39.2617C42.8665 41.0673 41.3867 40.8013 40.5512 42.2631C39.1915 44.6429 40.8061 49.3673 43.2131 50.0485C46.4637 50.9679 51.745 44.6798 53.7297 38.6346C55.1059 34.6972 55.145 30.4159 53.8408 26.4541C50.8061 17.5936 42.1325 14.8311 41.3679 14.6138C35.0485 12.8166 29.5894 15.0207 27.7776 15.8464C23.7735 18.0027 22.8964 20.2679 22.6401 21.3096Z" stroke="#2D2D2D" stroke-width="0.694444" stroke-miterlimit="10"/>
<path d="M35.0156 54.697C35.7705 55.6554 36.549 56.7234 37.3212 57.9047C37.9538 58.8727 38.5142 59.8123 39.0101 60.7088" fill="white"/>
<path d="M35.0156 54.697C35.7705 55.6554 36.549 56.7234 37.3212 57.9047C37.9538 58.8727 38.5142 59.8123 39.0101 60.7088" stroke="#2D2D2D" stroke-width="0.694444" stroke-miterlimit="10" stroke-linecap="round"/>
<path d="M20.5117 39.6763C23.5117 38.7735 29.3548 37.4839 32.9423 40.5687C33.8648 41.4294 34.6022 42.4691 35.1096 43.6242C36.5846 46.4201 38.7027 50.3964 41.6423 55.7978" stroke="#86BCFF" stroke-width="1.38889" stroke-miterlimit="10" stroke-linecap="round"/>
<path d="M34.8203 42.8956C36.6136 40.5354 39.0089 38.7011 41.755 37.5852" stroke="#86BCFF" stroke-width="1.38889" stroke-miterlimit="10" stroke-linecap="round"/>
<path d="M21.914 39.6762C21.914 39.9784 21.8244 40.2738 21.6565 40.525C21.4886 40.7762 21.25 40.9721 20.9708 41.0877C20.6917 41.2033 20.3845 41.2336 20.0881 41.1746C19.7918 41.1157 19.5195 40.9702 19.3059 40.7565C19.0922 40.5429 18.9467 40.2706 18.8878 39.9743C18.8288 39.6779 18.8591 39.3707 18.9747 39.0916C19.0903 38.8124 19.2861 38.5738 19.5374 38.4059C19.7886 38.238 20.084 38.1484 20.3862 38.1484C20.7914 38.1484 21.18 38.3094 21.4665 38.5959C21.753 38.8824 21.914 39.271 21.914 39.6762Z" fill="#FFA6AB"/>
<path d="M43.2655 37.3178C43.2655 37.62 43.1759 37.9154 43.008 38.1666C42.8402 38.4178 42.6016 38.6137 42.3224 38.7293C42.0432 38.8449 41.736 38.8752 41.4397 38.8162C41.1433 38.7573 40.8711 38.6118 40.6574 38.3981C40.4438 38.1845 40.2983 37.9122 40.2393 37.6159C40.1804 37.3195 40.2106 37.0123 40.3263 36.7332C40.4419 36.454 40.6377 36.2154 40.889 36.0475C41.1402 35.8796 41.4356 35.79 41.7377 35.79C42.1429 35.79 42.5315 35.951 42.818 36.2375C43.1046 36.524 43.2655 36.9126 43.2655 37.3178Z" fill="#FFA6AB"/>
<path d="M43.2011 55.8015C43.2011 56.1036 43.1115 56.399 42.9436 56.6502C42.7757 56.9015 42.5371 57.0973 42.2579 57.2129C41.9788 57.3286 41.6716 57.3588 41.3752 57.2999C41.0789 57.2409 40.8066 57.0954 40.593 56.8818C40.3793 56.6681 40.2338 56.3959 40.1749 56.0995C40.1159 55.8032 40.1462 55.496 40.2618 55.2168C40.3774 54.9376 40.5733 54.699 40.8245 54.5312C41.0757 54.3633 41.3711 54.2737 41.6733 54.2737C42.0785 54.2737 42.4671 54.4346 42.7536 54.7212C43.0401 55.0077 43.2011 55.3963 43.2011 55.8015Z" fill="#FFA6AB"/>
<path opacity="0.05" d="M29.7354 58.1398C26.679 56.0429 23.8245 53.666 21.2087 51.0399C18.6467 48.4691 16.3248 45.6697 14.2721 42.6765C12.5153 40.878 11.5221 38.4699 11.5 35.9559C11.4969 34.7084 11.7402 33.4725 12.2159 32.3193C12.6916 31.166 13.3904 30.118 14.2721 29.2354C18.7094 23.4105 23.9106 18.2094 29.7354 13.7721C31.5343 12.0159 33.9421 11.0228 36.456 11C37.7035 10.9969 38.9394 11.2401 40.0927 11.7158C41.246 12.1915 42.294 12.8903 43.1765 13.7721C45.9088 15.9255 48.5177 18.2309 50.9909 20.6775C53.7145 23.3698 56.269 26.2279 58.6399 29.2354C60.3971 31.0335 61.3905 33.4418 61.4119 35.9559C61.415 37.2035 61.1718 38.4394 60.6961 39.5927C60.2204 40.7459 59.5216 41.7939 58.6399 42.6765C56.1577 45.8312 53.4727 48.8208 50.6018 51.6264C48.2436 53.9276 45.7648 56.1018 43.1758 58.1398C42.0307 59.2646 40.6272 60.0914 39.0883 60.5477C38.2326 60.7948 37.346 60.9184 36.4553 60.9146C35.3368 60.8886 34.2309 60.6724 33.185 60.2753C31.9079 59.7931 30.7365 59.0679 29.7354 58.1398Z" fill="url(#paint0_linear_234_60496)" stroke="#707070" stroke-width="0.277968"/>
<defs>
<linearGradient id="paint0_linear_234_60496" x1="36.456" y1="11" x2="36.456" y2="60.9147" gradientUnits="userSpaceOnUse">
<stop stop-color="#1778F2"/>
<stop offset="1" stop-color="#F40009"/>
</linearGradient>
</defs>
</svg>
