<svg width="73" height="72" viewBox="0 0 73 72" fill="none" xmlns="http://www.w3.org/2000/svg">
<rect x="1" y="0.5" width="71" height="71" rx="11.5" fill="white" stroke="#E0E0E0"/>
<path opacity="0.05" d="M29.6797 58.3102C26.6181 56.2097 23.7587 53.8287 21.1384 51.1981C18.572 48.6229 16.2462 45.8187 14.1899 42.8205C12.4301 41.0189 11.4352 38.6067 11.4131 36.0884C11.41 34.8388 11.6537 33.6008 12.1302 32.4455C12.6067 31.2903 13.3067 30.2405 14.1899 29.3564C18.6348 23.5216 23.8449 18.3116 29.6797 13.8666C31.4816 12.1075 33.8936 11.1127 36.4117 11.0899C37.6614 11.0867 38.8994 11.3304 40.0547 11.8069C41.2099 12.2834 42.2597 12.9834 43.1438 13.8666C45.8807 16.0237 48.4941 18.3331 50.9715 20.7838C53.6997 23.4808 56.2586 26.3437 58.6336 29.3564C60.3938 31.1576 61.3889 33.57 61.4103 36.0884C61.4135 37.3381 61.1698 38.5761 60.6933 39.7313C60.2168 40.8866 59.5168 41.9364 58.6336 42.8205C56.1472 45.9805 53.4575 48.9753 50.5817 51.7856C48.2196 54.0908 45.7365 56.2687 43.1431 58.3102C41.996 59.4369 40.5901 60.2651 39.0486 60.7222C38.1914 60.9697 37.3032 61.0935 36.411 61.0898C35.2906 61.0637 34.1829 60.8471 33.1351 60.4493C31.8559 59.9663 30.6825 59.2398 29.6797 58.3102Z" fill="url(#paint0_linear_234_60537)" stroke="#707070" stroke-width="0.278443"/>
<path d="M30.5828 50.7367V47.7351H42.9206C42.7656 50.5771 43.2943 53.415 44.4625 56.0105C46.3684 59.8871 28.5216 59.1526 28.6887 56.3529C28.8557 53.5532 30.3266 58.9285 30.3663 49.1441" fill="white"/>
<path d="M30.5823 49.1094C30.5823 49.1094 30.4034 55.5589 28.2852 56.4701" stroke="#2D2D2D" stroke-width="0.696107" stroke-linecap="round"/>
<path d="M42.9707 49.1094C42.9707 49.1094 43.1496 55.5589 45.2679 56.4701" stroke="#2D2D2D" stroke-width="0.696107" stroke-linecap="round"/>
<path d="M24.1171 28.554C23.8581 28.5679 21.1809 28.7461 20.4374 30.4153C19.655 32.1709 21.0688 35.4398 24.7046 37.0075C23.9455 34.2572 23.7459 31.3827 24.1178 28.554" fill="white"/>
<path d="M24.1171 28.554C23.8581 28.5679 21.1809 28.7461 20.4374 30.4153C19.655 32.1709 21.0688 35.4398 24.7046 37.0075C23.9455 34.2572 23.7459 31.3827 24.1178 28.554H24.1171Z" stroke="#2D2D2D" stroke-width="0.696107" stroke-miterlimit="10"/>
<path d="M48.8251 28.3938C49.0841 28.4077 51.7613 28.5859 52.5054 30.2552C53.2878 32.0108 51.8741 35.2797 48.2383 36.8473C48.6116 35.4966 48.8503 34.1123 48.9511 32.7145C49.055 31.274 49.0127 29.8266 48.8251 28.3945" fill="white"/>
<path d="M48.8251 28.3938C49.0841 28.4077 51.7613 28.5859 52.5054 30.2552C53.2878 32.0108 51.8741 35.2797 48.2383 36.8473C48.6116 35.4966 48.8503 34.1123 48.9511 32.7145C49.055 31.2737 49.0128 29.8261 48.8251 28.3938V28.3938Z" stroke="#2D2D2D" stroke-width="0.696107" stroke-miterlimit="10"/>
<path d="M49.4302 35.3641C49.4302 44.6668 43.6526 52.2098 36.523 52.2098C29.3935 52.2098 23.6172 44.6668 23.6172 35.3641C23.6172 26.0613 29.3949 18.5183 36.5251 18.5183C43.6553 18.5183 49.4323 26.0599 49.4323 35.3641" fill="white"/>
<path d="M49.4302 35.3641C49.4302 44.6668 43.6526 52.2098 36.523 52.2098C29.3935 52.2098 23.6172 44.6668 23.6172 35.3641C23.6172 26.0613 29.3949 18.5183 36.5251 18.5183C43.6553 18.5183 49.4302 26.0613 49.4302 35.3641Z" stroke="#2D2D2D" stroke-width="0.696107" stroke-miterlimit="10"/>
<path d="M40.77 21.2067C37.9935 20.5553 35.0967 20.6243 32.3544 21.4074" stroke="#2D2D2D" stroke-width="0.696107" stroke-miterlimit="10" stroke-linecap="round"/>
<path d="M41.5652 23.6894C38.8399 22.8443 35.9438 22.7098 33.1519 23.2988" stroke="#2D2D2D" stroke-width="0.696472" stroke-miterlimit="10" stroke-linecap="round"/>
<path d="M24.3028 32.8058C23.143 32.6938 21.991 29.0329 22.6377 25.9896C22.9541 24.4783 23.5913 23.0526 24.506 21.8088C25.203 20.9167 26.0391 20.1427 26.9821 19.5165C32.3212 15.8536 39.2008 16.826 39.7904 16.9172C41.656 17.1337 43.4404 17.8028 44.9883 18.8663C45.4462 19.2083 45.8808 19.5804 46.2893 19.9801C47.2354 20.9161 48.0475 21.9785 48.7027 23.1369C49.3755 24.1179 49.8486 25.2218 50.0949 26.3856C50.3734 28.1663 49.9592 30.6576 48.8879 30.9347C47.7741 31.2222 46.0596 29.0893 45.4533 27.0365C45.0683 25.7313 45.3941 25.3498 45.1748 24.344C44.5407 21.4419 40.6293 19.158 37.1 18.867C33.2171 18.5475 30.4494 20.6922 29.2103 21.6514C28.1571 22.4666 27.2111 23.2198 26.7969 24.5284C26.2755 26.174 27.1387 26.9822 26.8066 28.9543C26.492 30.8261 25.2432 32.897 24.3007 32.8051" fill="#474747"/>
<path d="M24.3028 32.8058C23.143 32.6938 21.991 29.0329 22.6377 25.9896C22.9541 24.4783 23.5913 23.0526 24.506 21.8088C25.203 20.9167 26.0391 20.1427 26.9821 19.5165C32.3212 15.8536 39.2008 16.826 39.7904 16.9172C41.656 17.1337 43.4404 17.8028 44.9883 18.8663C45.4462 19.2083 45.8808 19.5804 46.2893 19.9801C47.2354 20.9161 48.0475 21.9785 48.7027 23.1369C49.3755 24.1179 49.8486 25.2218 50.0949 26.3856C50.3734 28.1663 49.9592 30.6576 48.8879 30.9347C47.7741 31.2222 46.0596 29.0893 45.4533 27.0365C45.0683 25.7313 45.3941 25.3498 45.1748 24.344C44.5407 21.4419 40.6293 19.158 37.1 18.867C33.2171 18.5475 30.4494 20.6922 29.2103 21.6514C28.1571 22.4666 27.2111 23.2198 26.7969 24.5284C26.2755 26.174 27.1387 26.9822 26.8066 28.9543C26.4913 30.8268 25.2425 32.897 24.3028 32.8058Z" stroke="#2D2D2D" stroke-width="0.696107" stroke-miterlimit="10"/>
<g style="mix-blend-mode:multiply">
<g style="mix-blend-mode:multiply">
<path d="M29.9737 26.9515C29.9905 27.0077 29.9953 27.0669 29.9877 27.125C29.9802 27.1832 29.9605 27.2391 29.9299 27.2892C29.8775 27.3455 29.8118 27.3878 29.7388 27.4121C29.6658 27.4365 29.5879 27.4421 29.5122 27.4284C29.3924 27.4186 29.2797 27.3676 29.1933 27.2841C29.1069 27.2006 29.0521 27.0897 29.0382 26.9703C29.0361 26.8468 29.0832 26.7274 29.1691 26.6385C29.2549 26.5496 29.3726 26.4985 29.4962 26.4963C29.7913 26.4872 29.9375 26.788 29.9737 26.9515Z" fill="#FF8E93"/>
</g>
<g style="mix-blend-mode:multiply">
<path d="M29.0245 24.8632C29.0413 24.9194 29.0461 24.9785 29.0385 25.0366C29.031 25.0948 29.0113 25.1507 28.9806 25.2008C28.9283 25.2571 28.8626 25.2994 28.7896 25.3238C28.7166 25.3481 28.6387 25.3537 28.563 25.34C28.4432 25.3302 28.3305 25.2792 28.2441 25.1957C28.1577 25.1122 28.1028 25.0013 28.0889 24.882C28.0869 24.7584 28.134 24.639 28.2198 24.5502C28.3057 24.4613 28.4234 24.4101 28.5469 24.4079C28.8421 24.3989 28.9883 24.6996 29.0245 24.8632Z" fill="#FF8E93"/>
</g>
</g>
<g style="mix-blend-mode:multiply">
<g style="mix-blend-mode:multiply">
<path d="M34.6905 25.318C34.7073 25.3742 34.7121 25.4333 34.7045 25.4915C34.697 25.5497 34.6773 25.6056 34.6467 25.6556C34.5943 25.712 34.5286 25.7543 34.4556 25.7786C34.3826 25.8029 34.3047 25.8085 34.229 25.7948C34.1092 25.785 33.9965 25.734 33.9101 25.6505C33.8237 25.567 33.7689 25.4562 33.7549 25.3368C33.7529 25.2132 33.8 25.0939 33.8858 25.005C33.9717 24.9161 34.0894 24.8649 34.213 24.8627C34.5081 24.8537 34.6543 25.1544 34.6905 25.318Z" fill="#FF8E93"/>
</g>
</g>
<g style="mix-blend-mode:multiply">
<g style="mix-blend-mode:multiply">
<path d="M32.3331 26.014C32.3499 26.0702 32.3547 26.1294 32.3471 26.1875C32.3396 26.2457 32.3199 26.3016 32.2892 26.3517C32.2369 26.408 32.1712 26.4503 32.0982 26.4746C32.0252 26.499 31.9473 26.5046 31.8716 26.4909C31.7518 26.4811 31.6391 26.4301 31.5527 26.3466C31.4663 26.2631 31.4114 26.1522 31.3975 26.0328C31.3955 25.9093 31.4425 25.7899 31.5284 25.701C31.6143 25.6121 31.732 25.561 31.8555 25.5588C32.1507 25.5497 32.2969 25.8505 32.3331 26.014Z" fill="#FF8E93"/>
</g>
</g>
<g style="mix-blend-mode:multiply">
<g style="mix-blend-mode:multiply">
<path d="M31.6358 23.9259C31.6526 23.9821 31.6574 24.0412 31.6498 24.0994C31.6423 24.1576 31.6226 24.2135 31.592 24.2635C31.5396 24.3199 31.4739 24.3622 31.4009 24.3865C31.3279 24.4108 31.25 24.4164 31.1743 24.4027C31.0545 24.3929 30.9418 24.3419 30.8554 24.2584C30.769 24.1749 30.7142 24.0641 30.7003 23.9447C30.6982 23.8211 30.7453 23.7018 30.8312 23.6129C30.917 23.524 31.0347 23.4729 31.1583 23.4707C31.4534 23.4616 31.5996 23.7623 31.6358 23.9259Z" fill="#FF8E93"/>
</g>
</g>
<g style="mix-blend-mode:multiply">
<g style="mix-blend-mode:multiply">
<path d="M37.3634 25.0763C37.3802 25.1325 37.3849 25.1916 37.3774 25.2498C37.3698 25.308 37.3501 25.3639 37.3195 25.4139C37.2672 25.4703 37.2014 25.5126 37.1285 25.5369C37.0555 25.5612 36.9775 25.5668 36.9018 25.5531C36.7821 25.5433 36.6694 25.4923 36.583 25.4088C36.4965 25.3253 36.4417 25.2145 36.4278 25.0951C36.4257 24.9715 36.4728 24.8522 36.5587 24.7633C36.6446 24.6744 36.7622 24.6232 36.8858 24.621C37.181 24.612 37.3272 24.9127 37.3634 25.0763Z" fill="#FF8E93"/>
</g>
</g>
<g style="mix-blend-mode:multiply">
<g style="mix-blend-mode:multiply">
<path d="M39.7198 25.0765C39.7366 25.1327 39.7414 25.1919 39.7338 25.25C39.7263 25.3082 39.7066 25.3641 39.676 25.4142C39.6236 25.4705 39.5579 25.5128 39.4849 25.5371C39.4119 25.5615 39.334 25.5671 39.2583 25.5534C39.1385 25.5436 39.0258 25.4926 38.9394 25.4091C38.853 25.3256 38.7982 25.2147 38.7842 25.0953C38.7822 24.9718 38.8293 24.8524 38.9151 24.7635C39.001 24.6746 39.1187 24.6235 39.2423 24.6213C39.5374 24.6122 39.6836 24.913 39.7198 25.0765Z" fill="#FF8E93"/>
</g>
</g>
<g style="mix-blend-mode:multiply">
<g style="mix-blend-mode:multiply">
<path d="M42.0772 26.014C42.094 26.0702 42.0988 26.1294 42.0913 26.1875C42.0837 26.2457 42.064 26.3016 42.0334 26.3517C41.981 26.408 41.9153 26.4503 41.8423 26.4746C41.7693 26.499 41.6914 26.5046 41.6157 26.4909C41.4959 26.4811 41.3833 26.4301 41.2968 26.3466C41.2104 26.2631 41.1556 26.1522 41.1417 26.0328C41.1396 25.9093 41.1867 25.7899 41.2726 25.701C41.3585 25.6121 41.4761 25.561 41.5997 25.5588C41.8948 25.5497 42.041 25.8505 42.0772 26.014Z" fill="#FF8E93"/>
</g>
</g>
<g style="mix-blend-mode:multiply">
<g style="mix-blend-mode:multiply">
<path d="M45.2891 28.5709C45.306 28.6271 45.3107 28.6862 45.3032 28.7444C45.2956 28.8026 45.2759 28.8585 45.2453 28.9085C45.1929 28.9649 45.1272 29.0072 45.0542 29.0315C44.9812 29.0559 44.9033 29.0614 44.8276 29.0478C44.7078 29.038 44.5952 28.987 44.5087 28.9035C44.4223 28.82 44.3675 28.7091 44.3536 28.5897C44.3515 28.4661 44.3986 28.3468 44.4845 28.2579C44.5704 28.169 44.688 28.1179 44.8116 28.1157C45.1067 28.1066 45.2529 28.4073 45.2891 28.5709Z" fill="#FF8E93"/>
</g>
</g>
<g style="mix-blend-mode:multiply">
<g style="mix-blend-mode:multiply">
<path d="M43.8966 27.1788C43.9134 27.235 43.9181 27.2942 43.9106 27.3523C43.903 27.4105 43.8833 27.4664 43.8527 27.5165C43.8004 27.5728 43.7346 27.6151 43.6617 27.6394C43.5887 27.6638 43.5107 27.6694 43.435 27.6557C43.3153 27.6459 43.2026 27.5949 43.1162 27.5114C43.0297 27.4279 42.9749 27.317 42.961 27.1976C42.959 27.0741 43.006 26.9547 43.0919 26.8658C43.1778 26.7769 43.2954 26.7258 43.419 26.7236C43.7142 26.7145 43.8604 27.0153 43.8966 27.1788Z" fill="#FF8E93"/>
</g>
<g style="mix-blend-mode:multiply">
<path d="M43.8966 24.3944C43.9134 24.4506 43.9181 24.5097 43.9106 24.5679C43.903 24.6261 43.8833 24.682 43.8527 24.732C43.8004 24.7884 43.7346 24.8307 43.6617 24.855C43.5887 24.8793 43.5107 24.8849 43.435 24.8712C43.3153 24.8614 43.2026 24.8104 43.1162 24.7269C43.0297 24.6434 42.9749 24.5326 42.961 24.4132C42.959 24.2896 43.006 24.1703 43.0919 24.0814C43.1778 23.9925 43.2954 23.9414 43.419 23.9392C43.7142 23.9301 43.8604 24.2308 43.8966 24.3944Z" fill="#FF8E93"/>
</g>
</g>
<g style="mix-blend-mode:multiply">
<g style="mix-blend-mode:multiply">
<path d="M28.3663 28.5707C28.3831 28.6269 28.3879 28.686 28.3803 28.7442C28.3728 28.8023 28.3531 28.8583 28.3224 28.9083C28.2701 28.9647 28.2044 29.007 28.1314 29.0313C28.0584 29.0556 27.9805 29.0612 27.9048 29.0475C27.785 29.0377 27.6723 28.9867 27.5859 28.9032C27.4995 28.8197 27.4446 28.7088 27.4307 28.5895C27.4287 28.4659 27.4757 28.3466 27.5616 28.2577C27.6475 28.1688 27.7652 28.1176 27.8887 28.1154C28.1839 28.1064 28.3301 28.4071 28.3663 28.5707Z" fill="#FF8E93"/>
</g>
</g>
<g style="mix-blend-mode:multiply" opacity="0.703">
<g style="mix-blend-mode:multiply" opacity="0.703">
<path d="M41.4402 22.4731C41.9714 22.6076 42.4682 22.8529 42.8979 23.193C43.3276 23.533 43.6805 23.9601 43.9335 24.4462C44.71 26.2747 43.2362 28.1747 43.035 28.4257C41.9179 29.8213 39.3777 31.3444 37.0818 30.0201C36.0809 29.4422 35.3506 28.4904 35.0515 27.3741C34.7525 26.2578 34.9091 25.0683 35.487 24.0675C36.8522 21.7035 39.9634 21.9804 41.4402 22.4731Z" fill="#FF8E93"/>
</g>
</g>
<defs>
<linearGradient id="paint0_linear_234_60537" x1="36.4117" y1="11.0898" x2="36.4117" y2="61.0898" gradientUnits="userSpaceOnUse">
<stop stop-color="#1778F2"/>
<stop offset="1" stop-color="#F40009"/>
</linearGradient>
</defs>
</svg>
