<svg width="73" height="72" viewBox="0 0 73 72" fill="none" xmlns="http://www.w3.org/2000/svg">
<rect x="1" y="0.5" width="71" height="71" rx="11.5" fill="white" stroke="#E0E0E0"/>
<path d="M17.8623 21.6522C18.995 23.4837 20.3017 25.2015 21.7644 26.782C25.1526 30.4313 27.4297 31.2098 31.447 35.5258C33.322 37.5397 34.2672 38.5744 34.6991 40.0056C35.5845 42.9362 34.2755 45.1056 33.4713 48.6057C32.7024 52.0734 32.6285 55.6593 33.254 59.1557L44.3109 58.8668C45.8026 54.5613 46.9797 51.1501 47.7074 49.0404C50.4408 41.0994 50.8192 39.9287 50.6706 38.055C50.4109 34.7988 48.8436 32.9766 43.5873 26.3495C41.5123 23.7322 38.1012 19.405 33.7588 13.7744C28.4607 16.3971 23.1618 19.023 17.8623 21.6522Z" fill="white" stroke="white" stroke-width="0.694444"/>
<path d="M32.8066 13.2563C39.3025 21.0452 42.6976 25.0085 43.5469 26.078C44.1907 26.8898 44.7969 27.6627 44.7969 27.6634C45.1143 28.0703 45.4219 28.4674 45.8601 29.0341C48.9428 33.0237 50.6011 35.3634 50.7261 38.6571C50.7431 39.0399 50.7343 39.4233 50.6997 39.8049C50.5182 41.6439 49.9877 43.4314 49.1365 45.0716C48.1851 46.9251 46.8289 50.5501 44.7816 57.3466" stroke="#2D2D2D" stroke-width="0.694444" stroke-miterlimit="10" stroke-linecap="round"/>
<path d="M17.6934 24.2632C21.1328 27.8427 24.8672 31.1265 28.8572 34.0798C32.0267 36.4146 35.085 38.3161 35.385 41.4897C35.5392 43.1161 34.8704 44.066 34.1697 45.9132C32.8159 49.663 32.3982 53.6869 32.9531 57.6348" stroke="#2D2D2D" stroke-width="0.694444" stroke-miterlimit="10" stroke-linecap="round"/>
<path d="M22.9443 17.9216C25.7179 20.4008 28.5089 23.0426 31.3173 25.8472C32.0899 26.6231 32.8499 27.398 33.5971 28.1716C33.5971 28.1716 37.4103 31.8522 37.4652 34.464C37.4717 34.5616 37.4731 34.6593 37.4693 34.757C37.4214 36.2063 36.8443 37.8563 37.7402 38.5847C38.1498 38.8565 38.6406 38.979 39.1299 38.9314C39.6193 38.8839 40.0773 38.6692 40.427 38.3236C40.9534 37.657 40.5263 36.6348 40.8436 36.5182C41.227 36.3751 41.7513 37.9313 42.6492 37.982C43.5318 38.0313 44.7131 36.6292 44.4916 35.5979C44.2978 34.6951 43.1548 34.664 40.9853 32.8717C40.9853 32.8717 40.5728 32.5314 39.7971 31.7939C38.1047 30.1707 36.6668 28.3014 35.5318 26.2494C34.4388 24.3563 32.0311 21.1646 26.2263 15.4785" fill="#86BCFF"/>
<path d="M22.9443 17.9216C25.7179 20.4008 28.5089 23.0426 31.3173 25.8472C32.0899 26.6231 32.8499 27.398 33.5971 28.1716C33.5971 28.1716 37.4103 31.8522 37.4652 34.464C37.4717 34.5616 37.4731 34.6593 37.4693 34.757C37.4214 36.2063 36.8443 37.8563 37.7402 38.5847C38.1498 38.8565 38.6406 38.979 39.1299 38.9314C39.6193 38.8839 40.0773 38.6692 40.427 38.3236C40.9534 37.657 40.5263 36.6348 40.8436 36.5182C41.227 36.3751 41.7513 37.9313 42.6492 37.982C43.5318 38.0313 44.7131 36.6292 44.4916 35.5979C44.2978 34.6951 43.1548 34.664 40.9853 32.8717C40.9853 32.8717 40.5728 32.5314 39.7971 31.7939C38.1047 30.1707 36.6668 28.3014 35.5318 26.2494C34.4388 24.3563 32.0311 21.1646 26.2263 15.4785" stroke="#2D2D2D" stroke-width="0.694444" stroke-miterlimit="10" stroke-linecap="round"/>
<path d="M37.4453 57.5993C38.3438 54.9 38.9965 52.1251 39.3953 49.3083C39.6363 47.5368 39.7516 46.632 39.5592 45.6764C39.1807 43.8118 38.1634 42.6904 38.7453 41.666C38.9678 41.3029 39.3149 41.0331 39.7217 40.907C40.0083 40.8244 40.3119 40.8199 40.6008 40.8941C40.8897 40.9684 41.1535 41.1186 41.3648 41.3292C41.8641 41.8792 41.6467 42.6438 41.8898 42.6958C42.1911 42.7604 42.3759 41.5527 43.3307 41.1215C43.5699 41.0211 43.8271 40.9713 44.0865 40.975C44.3458 40.9787 44.6015 41.0358 44.8377 41.143C45.0739 41.2502 45.2853 41.4051 45.4588 41.5979C45.6323 41.7906 45.7642 42.0171 45.846 42.2632C46.1127 43.3576 44.5835 44.0278 43.0286 46.5514C42.5239 47.3705 42.105 48.2393 41.7786 49.1444C41.2584 50.6817 40.9842 52.2917 40.9661 53.9146C40.8953 55.3076 40.9497 56.7042 41.1286 58.0876" fill="#86BCFF"/>
<path d="M37.4453 57.5993C38.3438 54.9 38.9965 52.1251 39.3953 49.3083C39.6363 47.5368 39.7516 46.632 39.5592 45.6764C39.1807 43.8118 38.1634 42.6904 38.7453 41.666C38.9678 41.3029 39.3149 41.0331 39.7217 40.907C40.0083 40.8244 40.3119 40.8199 40.6008 40.8941C40.8897 40.9684 41.1535 41.1186 41.3648 41.3292C41.8641 41.8792 41.6467 42.6438 41.8898 42.6958C42.1911 42.7604 42.3759 41.5527 43.3307 41.1215C43.5699 41.0211 43.8271 40.9713 44.0865 40.975C44.3458 40.9787 44.6015 41.0358 44.8377 41.143C45.0739 41.2502 45.2853 41.4051 45.4588 41.5979C45.6323 41.7906 45.7642 42.0171 45.846 42.2632C46.1127 43.3576 44.5835 44.0278 43.0286 46.5514C42.5239 47.3705 42.105 48.2393 41.7786 49.1444C41.2584 50.6817 40.9842 52.2917 40.9661 53.9146C40.8953 55.3076 40.9497 56.7042 41.1286 58.0876" stroke="#2D2D2D" stroke-width="0.694444" stroke-miterlimit="10" stroke-linecap="round"/>
<g style="mix-blend-mode:multiply" opacity="0.703">
<g style="mix-blend-mode:multiply" opacity="0.703">
<path d="M51.1091 38.6872C51.348 39.7609 51.9903 42.6456 50.2966 44.9796C47.9681 48.1859 43.2036 47.6185 42.5674 47.5324C39.0327 47.0567 33.8174 44.2775 33.723 38.9907C33.683 36.6853 34.5605 34.4584 36.1624 32.7999C37.7642 31.1414 39.9592 30.1871 42.2646 30.147C47.7098 30.0511 50.4341 35.6567 51.1091 38.6872Z" fill="#FF8E93"/>
</g>
</g>
<path opacity="0.05" d="M29.7229 58.1077C26.6687 56.0121 23.8161 53.6368 21.2021 51.0125C18.6418 48.4435 16.3215 45.646 14.2702 42.6549C12.5146 40.8576 11.522 38.4512 11.5 35.9389C11.4969 34.6922 11.7401 33.4572 12.2154 32.3047C12.6908 31.1522 13.3891 30.1049 14.2702 29.2229C18.7045 23.4021 23.9021 18.2045 29.7229 13.7702C31.5206 12.0152 33.9268 11.0228 36.4389 11C37.6856 10.9969 38.9207 11.24 40.0732 11.7153C41.2257 12.1907 42.273 12.889 43.1549 13.7702C45.8853 15.9221 48.4924 18.226 50.9639 20.6709C53.6856 23.3614 56.2384 26.2175 58.6077 29.2229C60.3637 31.0199 61.3564 33.4265 61.3778 35.9389C61.3809 37.1856 61.1378 38.4206 60.6624 39.5731C60.1871 40.7256 59.4888 41.7729 58.6077 42.6549C56.1272 45.8074 53.444 48.795 50.575 51.5986C48.2185 53.8983 45.7414 56.0711 43.1542 58.1077C42.0098 59.2316 40.6073 60.0579 39.0695 60.5139C38.2143 60.7608 37.3283 60.8843 36.4382 60.8806C35.3205 60.8546 34.2154 60.6385 33.1702 60.2417C31.894 59.7598 30.7233 59.0351 29.7229 58.1077Z" fill="url(#paint0_linear_234_60418)" stroke="#707070" stroke-width="0.277778"/>
<defs>
<linearGradient id="paint0_linear_234_60418" x1="36.4389" y1="11" x2="36.4389" y2="60.8807" gradientUnits="userSpaceOnUse">
<stop stop-color="#1778F2"/>
<stop offset="1" stop-color="#F40009"/>
</linearGradient>
</defs>
</svg>
