<svg width="73" height="72" viewBox="0 0 73 72" fill="none" xmlns="http://www.w3.org/2000/svg">
<rect x="1" y="0.5" width="71" height="71" rx="11.5" fill="white" stroke="#E0E0E0"/>
<path opacity="0.05" d="M29.7666 58.2204C26.705 56.1198 23.8456 53.7388 21.2253 51.1083C18.6589 48.5331 16.3331 45.7289 14.2768 42.7306C12.5171 40.9291 11.5221 38.5169 11.5 35.9986C11.4969 34.7489 11.7406 33.5109 12.2171 32.3557C12.6937 31.2004 13.3936 30.1506 14.2768 29.2665C18.7218 23.4318 23.9318 18.2217 29.7666 13.7768C31.5685 12.0177 33.9805 11.0228 36.4986 11C37.7483 10.9969 38.9863 11.2405 40.1416 11.717C41.2969 12.1936 42.3466 12.8935 43.2307 13.7768C45.9676 15.9339 48.581 18.2433 51.0584 20.694C53.7866 23.3909 56.3455 26.2539 58.7205 29.2665C60.4807 31.0678 61.4758 33.4802 61.4972 35.9986C61.5004 37.2483 61.2567 38.4862 60.7802 39.6415C60.3037 40.7968 59.6037 41.8465 58.7205 42.7306C56.2341 45.8907 53.5444 48.8854 50.6686 51.6958C48.3065 54.0009 45.8234 56.1789 43.23 58.2204C42.0829 59.347 40.677 60.1752 39.1355 60.6324C38.2783 60.8799 37.3901 61.0036 36.4979 60.9999C35.3776 60.9739 34.2698 60.7573 33.2221 60.3595C31.9428 59.8764 30.7694 59.15 29.7666 58.2204Z" fill="url(#paint0_linear_234_60346)" stroke="#707070" stroke-width="0.278443"/>
<path d="M19.168 37.1704C19.2432 35.8861 20.3514 34.9533 21.2028 34.3366C29.3827 28.4148 36.4593 28.3069 36.4593 28.3069C42.4875 28.5296 48.2573 30.8118 52.8067 34.773C54.0897 35.9084 54.24 36.8265 54.2595 37.2435C54.2359 37.7392 54.1147 38.2255 53.9028 38.6743C53.6909 39.123 53.3924 39.5256 53.0246 39.8588C50.9679 42.0601 48.4999 43.8373 45.76 45.09C43.0651 46.2213 40.1819 46.8374 37.2599 46.9061C34.1405 46.9268 31.0499 46.3088 28.1784 45.09C25.4113 43.9383 22.8944 42.2597 20.7677 40.1476C19.8718 39.2525 19.1019 38.3071 19.168 37.1704Z" fill="white" stroke="#2D2D2D" stroke-width="0.696107" stroke-miterlimit="10"/>
<path d="M36.8588 46.8323C41.9747 46.8323 46.1219 42.6851 46.1219 37.5692C46.1219 32.4534 41.9747 28.3062 36.8588 28.3062C31.7429 28.3062 27.5957 32.4534 27.5957 37.5692C27.5957 42.6851 31.7429 46.8323 36.8588 46.8323Z" fill="white"/>
<path d="M36.8588 46.8323C41.9747 46.8323 46.1219 42.6851 46.1219 37.5692C46.1219 32.4534 41.9747 28.3062 36.8588 28.3062C31.7429 28.3062 27.5957 32.4534 27.5957 37.5692C27.5957 42.6851 31.7429 46.8323 36.8588 46.8323Z" fill="#86BCFF" stroke="#2D2D2D" stroke-width="0.696107" stroke-miterlimit="10"/>
<path d="M36.8592 45.44C41.2061 45.44 44.7301 41.9161 44.7301 37.5691C44.7301 33.2221 41.2061 29.6982 36.8592 29.6982C32.5122 29.6982 28.9883 33.2221 28.9883 37.5691C28.9883 41.9161 32.5122 45.44 36.8592 45.44Z" fill="white"/>
<path d="M36.9194 40.8986C38.9255 40.8986 40.5517 39.2724 40.5517 37.2663C40.5517 35.2603 38.9255 33.634 36.9194 33.634C34.9133 33.634 33.2871 35.2603 33.2871 37.2663C33.2871 39.2724 34.9133 40.8986 36.9194 40.8986Z" fill="#FF8E93"/>
<path d="M36.9194 40.8986C38.9255 40.8986 40.5517 39.2724 40.5517 37.2663C40.5517 35.2603 38.9255 33.634 36.9194 33.634C34.9133 33.634 33.2871 35.2603 33.2871 37.2663C33.2871 39.2724 34.9133 40.8986 36.9194 40.8986Z" stroke="white" stroke-width="0.696107" stroke-miterlimit="10"/>
<path d="M20.0398 30.9213C18.9541 30.4171 18.0383 29.6086 17.4035 28.5938C16.7687 27.579 16.4422 26.4016 16.4639 25.2048" stroke="#2D2D2D" stroke-width="0.696107" stroke-miterlimit="10" stroke-linecap="round"/>
<path d="M27.3782 26.9493C26.5235 26.3019 25.8512 25.444 25.4268 24.4594C25.0023 23.4748 24.8403 22.397 24.9564 21.3311" stroke="#2D2D2D" stroke-width="0.696107" stroke-miterlimit="10" stroke-linecap="round"/>
<path d="M36.1914 25.69C36.6436 23.4198 36.6436 21.0827 36.1914 18.8125" stroke="#2D2D2D" stroke-width="0.696107" stroke-miterlimit="10" stroke-linecap="round"/>
<path d="M44.8145 27.5291C45.8348 27.0027 46.696 26.2134 47.309 25.2427C47.922 24.2719 48.2646 23.1551 48.3013 22.0076" stroke="#2D2D2D" stroke-width="0.696107" stroke-miterlimit="10" stroke-linecap="round"/>
<path d="M52.4678 31.1156C53.5291 30.8286 54.4818 30.2339 55.2058 29.4064C55.9297 28.5789 56.3925 27.5557 56.5358 26.4656" stroke="#2D2D2D" stroke-width="0.696107" stroke-miterlimit="10" stroke-linecap="round"/>
<defs>
<linearGradient id="paint0_linear_234_60346" x1="36.4986" y1="11" x2="36.4986" y2="61" gradientUnits="userSpaceOnUse">
<stop stop-color="#1778F2"/>
<stop offset="1" stop-color="#F40009"/>
</linearGradient>
</defs>
</svg>
