<svg width="73" height="72" viewBox="0 0 73 72" fill="none" xmlns="http://www.w3.org/2000/svg">
<rect x="1" y="0.5" width="71" height="71" rx="11.5" fill="white" stroke="#E0E0E0"/>
<path opacity="0.05" d="M29.7354 58.1398C26.679 56.0429 23.8245 53.666 21.2087 51.0399C18.6467 48.4691 16.3248 45.6697 14.2721 42.6765C12.5153 40.878 11.5221 38.4699 11.5 35.9559C11.4969 34.7084 11.7402 33.4725 12.2159 32.3193C12.6916 31.166 13.3904 30.118 14.2721 29.2354C18.7094 23.4105 23.9106 18.2094 29.7354 13.7721C31.5343 12.0159 33.9421 11.0228 36.456 11C37.7035 10.9969 38.9394 11.2401 40.0927 11.7158C41.246 12.1915 42.294 12.8903 43.1765 13.7721C45.9088 15.9255 48.5177 18.2309 50.9909 20.6775C53.7145 23.3698 56.269 26.2279 58.6399 29.2354C60.3971 31.0335 61.3905 33.4418 61.4119 35.9559C61.415 37.2035 61.1718 38.4394 60.6961 39.5927C60.2204 40.7459 59.5216 41.7939 58.6399 42.6765C56.1577 45.8312 53.4727 48.8208 50.6018 51.6264C48.2436 53.9276 45.7648 56.1018 43.1758 58.1398C42.0307 59.2646 40.6272 60.0914 39.0883 60.5477C38.2326 60.7948 37.346 60.9184 36.4553 60.9146C35.3368 60.8886 34.2309 60.6724 33.185 60.2753C31.9079 59.7931 30.7365 59.0679 29.7354 58.1398Z" fill="url(#paint0_linear_234_60464)" stroke="#707070" stroke-width="0.277968"/>
<path d="M17.1289 24.5473L17.5327 26.4458C18.5945 27.0344 19.7696 27.6222 21.0566 28.1789C23.0753 29.0511 25.1622 29.7563 27.2963 30.2872C27.6118 28.2873 27.927 26.2868 28.2421 24.2859L22.5298 21.7085L17.1289 24.5473Z" fill="white"/>
<path d="M29.9057 12.2915C25.7714 15.3951 22.0616 19.0271 18.8711 23.0947C19.9477 24.6899 20.7666 26.4444 21.2978 28.2941L26.3811 28.8146C26.2748 32.0112 26.0753 35.3677 25.7556 38.8666C25.3582 43.2564 24.1768 51.2674 24.1768 51.2674C24.1768 51.2674 23.6903 55.4168 26.8522 56.7107C30.0141 58.0047 29.2379 61.0109 36.4484 60.9998C43.6589 60.9887 41.0863 59.3646 45.0279 57.1555C48.9695 54.9463 49.0584 53.4425 50.5295 52.0888C50.3628 50.699 49.025 47.6942 48.8068 45.0472C48.6407 43.032 48.5705 41.7366 48.4024 39.0966C48.2856 37.2634 48.1098 34.5914 47.8721 31.2968C47.8127 31.0563 47.8329 30.8029 47.9298 30.5748C48.0013 30.4127 48.1102 30.2699 48.2474 30.1579C50.517 30.1751 52.7223 29.4044 54.4871 27.9772C55.1461 27.4184 55.7201 26.7664 56.191 26.0419C55.8732 25.7264 55.5557 25.4086 55.2383 25.0885C54.3655 24.2106 53.5084 23.3345 52.6671 22.4603C49.8749 19.6292 47.0825 16.7983 44.2899 13.9677C43.3052 12.7248 41.9397 11.8395 40.4032 11.4479C37.8598 10.8176 36.8222 10.9705 34.1107 11.1998C32.6499 11.2776 31.2198 11.6489 29.9057 12.2915Z" fill="white"/>
<path d="M42.8936 13.011C44.4843 13.9524 45.9426 15.1015 47.2299 16.4279C48.8352 17.9699 48.7365 18.2931 50.66 20.3778C54.3368 24.3778 56.2513 24.8948 56.1749 26.1936C56.1123 27.3416 54.5071 28.8259 47.8616 30.3325" stroke="#2D2D2D" stroke-width="0.694919" stroke-miterlimit="10" stroke-linecap="round"/>
<path d="M26.1685 29.7716C18.7162 28.0183 16.9761 26.4985 16.9581 25.3727C16.949 24.3727 18.3076 23.9697 21.0581 20.9739C22.8697 19.0059 22.8385 18.5667 24.1852 17.1004C25.6733 15.4016 27.4663 13.9963 29.4715 12.9573" stroke="#2D2D2D" stroke-width="0.694919" stroke-miterlimit="10" stroke-linecap="round"/>
<path d="M25.46 24.4055C25.87 26.67 26.0943 28.9641 26.1306 31.2651C26.1521 33.4398 26.0199 35.6134 25.7352 37.7695C25.3294 41.2997 24.7978 45.6673 24.1182 50.7235" stroke="#2D2D2D" stroke-width="0.694919" stroke-miterlimit="10" stroke-linecap="round"/>
<path d="M47.5732 24.7703C47.5969 26.8946 47.6532 29.9578 47.804 33.6652C47.8985 35.9835 47.961 37.5276 48.0931 39.2114C48.3971 43.0112 48.9808 46.7835 49.8394 50.4975" stroke="#2D2D2D" stroke-width="0.694919" stroke-miterlimit="10" stroke-linecap="round"/>
<path d="M19.3987 27.6973C18.636 28.8997 18.0288 30.194 17.5919 31.5492C17.0054 33.3678 16.5183 34.8793 16.8213 36.5561C17.4307 39.9306 20.8768 41.9695 23.4494 43.4914C24.6254 44.1868 25.8635 44.7715 27.1478 45.2377C28.3605 45.9051 29.6157 46.4924 30.9052 46.9958C31.6877 47.3143 32.4893 47.5835 33.3054 47.802C34.3817 48.124 35.4952 48.3053 36.6181 48.3412C39.7779 48.2245 42.5757 44.4462 42.0871 43.7193C41.5242 42.882 36.3082 45.6651 35.7703 44.7207C35.6772 44.5581 35.7856 44.2273 36.0017 43.5657C36.3728 42.4296 36.7905 42.0216 36.6181 41.7937C36.4312 41.5477 35.7286 41.743 35.3082 41.948C34.8639 42.2066 34.4722 42.5462 34.1532 42.9493C33.7683 43.3702 33.3536 43.7627 32.9121 44.1238C31.9434 44.7652 29.9788 43.5574 25.835 40.4351C22.2423 37.725 21.5641 37.0147 21.5307 35.9779C21.505 35.1635 21.9831 34.3567 22.94 32.7431C23.6028 31.625 24.3507 30.5595 25.177 29.5562C24.703 29.4394 24.214 29.3086 23.71 29.1636C23.4946 29.101 22.9622 28.9454 22.1575 28.6771C21.4494 28.4478 20.5141 28.1267 19.3987 27.6973Z" fill="white" stroke="#2D2D2D" stroke-width="0.694919" stroke-miterlimit="10"/>
<path d="M48.8726 30.1143C49.2013 30.5854 52.056 34.6917 52.7148 36.2476C52.7893 36.3885 52.8346 36.543 52.8479 36.7018C52.8611 36.8607 52.8421 37.0206 52.7919 37.1719C52.6585 37.4693 52.3103 37.7195 51.4021 37.8668C50.2073 38.1803 48.941 38.0725 47.8163 37.5617C45.7392 36.4332 46.0046 34.0482 44.2194 33.6702C43.7051 33.5611 43.0644 33.6264 42.9484 33.9016C42.7399 34.3929 44.3146 35.2991 44.1617 35.6347C43.8955 36.2163 39.0297 33.7668 38.0957 34.9398C37.5315 35.6479 38.3737 37.7007 39.8289 38.8105C41.2841 39.9203 42.3264 39.3032 46.3952 40.1774C48.6627 40.6639 48.5036 40.8876 50.0929 41.1023C51.8997 41.3463 55.2443 41.7972 56.4479 40.1009C57.0441 39.2587 56.8836 38.2143 56.5632 36.1337C56.3237 34.7269 55.9098 33.3555 55.3311 32.051C54.8442 30.8496 54.2729 29.6841 53.6217 28.5632C53.1737 28.7555 52.7034 28.9424 52.211 29.124C51.1199 29.5234 50.0049 29.8542 48.8726 30.1143Z" fill="white" stroke="#2D2D2D" stroke-width="0.694919" stroke-miterlimit="10"/>
<path d="M32.6135 47.8009C32.3508 48.0849 32.0158 48.2922 31.6443 48.4003C31.2728 48.5085 30.8789 48.5135 30.5048 48.4148C29.328 48.0051 28.827 47.0742 29.011 46.2732L32.6135 47.8009Z" fill="#FF8E93" stroke="#2D2D2D" stroke-width="0.694919" stroke-miterlimit="10" stroke-linecap="round"/>
<path d="M56.5073 38.3523C56.7603 38.6485 56.9173 39.0147 56.9576 39.4022C56.9978 39.7896 56.9194 40.1802 56.7328 40.5222C56.617 40.7709 56.4484 40.9915 56.2387 41.1684C56.029 41.3453 55.7833 41.4743 55.5185 41.5464C55.2538 41.6185 54.9766 41.632 54.7061 41.5859C54.4356 41.5399 54.1785 41.4354 53.9525 41.2797C53.9525 41.2797 54.032 38.3699 56.5073 38.3523Z" fill="#FF8E93" stroke="#2D2D2D" stroke-width="0.695001" stroke-miterlimit="10" stroke-linecap="round"/>
<path d="M17.7076 38.4922C17.1638 38.363 16.6654 38.0887 16.2654 37.6984C15.8655 37.3081 15.579 36.8165 15.4366 36.2761C15.3391 35.7781 15.4315 35.2617 15.6955 34.8283C15.9595 34.395 16.376 34.0761 16.8632 33.9342C16.8632 33.9342 18.636 36.1065 17.7076 38.4922Z" fill="#FF8E93" stroke="#2D2D2D" stroke-width="0.694919" stroke-miterlimit="10" stroke-linecap="round"/>
<path d="M45.8584 40.0134C45.7839 40.3816 45.5881 40.7142 45.3022 40.9579C45.0164 41.2016 44.657 41.3424 44.2817 41.3577C42.9648 41.38 42.6603 40.05 42.6544 39.56C43.6986 39.8476 44.7754 40 45.8584 40.0134Z" fill="#FF8E93" stroke="#2D2D2D" stroke-width="0.694919" stroke-miterlimit="10" stroke-linecap="round" stroke-linejoin="round"/>
<g style="mix-blend-mode:multiply" opacity="0.703">
<g style="mix-blend-mode:multiply" opacity="0.703">
<path d="M57.7502 39.8704C57.8309 40.1379 57.854 40.4195 57.8181 40.6967C57.7822 40.9738 57.688 41.2402 57.5418 41.4784C57.2927 41.7427 56.9817 41.9407 56.6369 42.0547C56.2921 42.1686 55.9243 42.1948 55.5668 42.1309C54.6634 42.0093 53.3306 41.297 53.3069 39.9482C53.2973 39.3592 53.5217 38.7905 53.9309 38.3668C54.3401 37.9431 54.9007 37.6991 55.4897 37.6883C56.8788 37.6633 57.5744 39.0955 57.7502 39.8704Z" fill="#FF8E93"/>
</g>
</g>
<g style="mix-blend-mode:multiply" opacity="0.703">
<g style="mix-blend-mode:multiply" opacity="0.703">
<path d="M46.6311 40.5652C46.7118 40.8328 46.7349 41.1144 46.699 41.3915C46.663 41.6687 46.5689 41.9351 46.4226 42.1732C46.1736 42.4375 45.8626 42.6356 45.5178 42.7495C45.1729 42.8634 44.8051 42.8896 44.4476 42.8257C43.5443 42.7041 42.2114 41.9918 42.1878 40.643C42.1781 40.054 42.4025 39.4853 42.8118 39.0616C43.221 38.6379 43.7816 38.3939 44.3705 38.3831C45.7597 38.3581 46.4553 39.7903 46.6311 40.5652Z" fill="#FF8E93"/>
</g>
</g>
<g style="mix-blend-mode:multiply" opacity="0.703">
<g style="mix-blend-mode:multiply" opacity="0.703">
<path d="M19.5295 36.3748C19.6102 36.6423 19.6333 36.9239 19.5974 37.2011C19.5615 37.4782 19.4673 37.7446 19.3211 37.9828C19.072 38.2471 18.761 38.4451 18.4162 38.5591C18.0714 38.673 17.7036 38.6992 17.3461 38.6353C16.4427 38.5137 15.1099 37.8014 15.0862 36.4526C15.0766 35.8636 15.301 35.2949 15.7102 34.8712C16.1194 34.4475 16.68 34.2035 17.269 34.1927C18.6581 34.1677 19.3537 35.5999 19.5295 36.3748Z" fill="#FF8E93"/>
</g>
</g>
<g style="mix-blend-mode:multiply" opacity="0.703">
<g style="mix-blend-mode:multiply" opacity="0.703">
<path d="M32.7327 47.8918C32.8133 48.1594 32.8365 48.441 32.8005 48.7182C32.7646 48.9953 32.6704 49.2617 32.5242 49.4999C32.2751 49.7642 31.9641 49.9622 31.6193 50.0762C31.2745 50.1901 30.9067 50.2163 30.5492 50.1524C29.6458 50.0308 28.313 49.3185 28.2894 47.9697C28.2797 47.3807 28.5041 46.812 28.9133 46.3883C29.3225 45.9646 29.8832 45.7206 30.4721 45.7098C31.8612 45.6848 32.5569 47.117 32.7327 47.8918Z" fill="#FF8E93"/>
</g>
</g>
<defs>
<linearGradient id="paint0_linear_234_60464" x1="36.456" y1="11" x2="36.456" y2="60.9147" gradientUnits="userSpaceOnUse">
<stop stop-color="#1778F2"/>
<stop offset="1" stop-color="#F40009"/>
</linearGradient>
</defs>
</svg>
