<svg width="73" height="72" viewBox="0 0 73 72" fill="none" xmlns="http://www.w3.org/2000/svg">
<rect x="1" y="0.5" width="71" height="71" rx="11.5" fill="white" stroke="#E0E0E0"/>
<path d="M32.6192 15.7427C34.4942 23.21 36.0371 28.8781 37.4552 33.3586C37.4552 33.3586 38.5794 36.9128 39.2433 44.1857C39.414 45.2434 39.3341 46.3263 39.01 47.3475C38.7004 48.1656 38.2195 48.9081 37.5996 49.5253C36.2288 50.9732 35.2817 51.0357 31.7219 52.8385C29.5122 53.9579 28.9136 54.4204 27.1594 55.0357C26.2947 55.3989 25.3829 55.6376 24.4511 55.7447C22.6261 55.8836 21.6253 55.2871 21.0996 55.8739C20.5941 56.4371 21.0211 57.5406 21.0996 57.7427C21.3188 58.2168 21.6406 58.6363 22.0419 58.9707C22.4432 59.3051 22.9139 59.546 23.4198 59.676C24.2531 59.919 24.5553 59.701 25.8692 59.676C27.5768 59.6433 27.8322 59.9961 29.7676 60.1621C31.0897 60.1975 32.4127 60.1653 33.7315 60.0656C37.4815 59.919 37.6851 59.9079 38.2754 59.969C38.9386 60.0385 39.8532 60.1718 41.6824 60.442C43.015 60.6385 42.8823 60.6322 43.067 60.6503C44.1635 60.7517 46.4094 60.9565 47.6504 59.7767C48.6011 58.8739 48.61 57.4982 48.617 56.3933C48.6316 54.1461 47.7454 53.1885 47.0704 50.7871C46.5843 49.0552 46.5649 47.801 46.4906 45.3704C46.3961 42.3045 46.8435 41.5038 47.4629 36.5378C48.0351 31.9545 48.2962 29.0538 47.9295 25.2427C47.5527 21.3186 46.1425 17.5645 43.8427 14.3628" fill="white"/>
<path d="M44.497 60.9133C43.9352 60.9133 43.4247 60.8661 43.0504 60.8314C42.9601 60.8231 42.9414 60.8203 42.8102 60.7994C42.6644 60.7758 42.3719 60.73 41.6553 60.6237C39.8365 60.355 38.9226 60.2196 38.2566 60.1515C36.8533 60.0886 35.4474 60.1169 34.0477 60.2362L33.74 60.248C32.4137 60.35 31.0829 60.3822 29.7532 60.3446C29.1263 60.2929 28.5034 60.2001 27.8886 60.0668C27.229 59.9117 26.5521 59.8431 25.8748 59.8626C25.404 59.8717 25.0595 59.9064 24.7824 59.9321C24.3116 60.0121 23.8287 59.985 23.3698 59.8529C22.8353 59.7167 22.3382 59.462 21.9153 59.1078C21.4924 58.7535 21.1547 58.3088 20.9269 57.8064C20.722 57.2793 20.4554 56.3085 20.9616 55.7446C21.3304 55.3349 21.8505 55.3974 22.5699 55.48C23.189 55.5676 23.8152 55.5923 24.4393 55.5536C25.3536 55.4466 26.2484 55.2112 27.097 54.8543C28.0946 54.5011 29.0585 54.0595 29.9775 53.5349C30.4324 53.2911 30.9587 53.0099 31.6372 52.6661C32.7525 52.1015 33.6149 51.7057 34.3073 51.3876C35.8441 50.6828 36.5456 50.3605 37.4637 49.3911C38.0672 48.7939 38.5346 48.0733 38.8337 47.2786C39.1491 46.2833 39.2255 45.2277 39.0567 44.1974C38.4032 37.0349 37.288 33.446 37.2762 33.4105C35.915 29.1092 34.3782 23.5078 32.4373 15.7828L32.8025 15.6918C34.74 23.4085 36.2747 29.0029 37.6351 33.2974C37.6462 33.3328 38.7734 36.9543 39.431 44.1633C39.6041 45.2488 39.5206 46.3597 39.1872 47.4071C38.8673 48.2487 38.3728 49.0131 37.7365 49.6501C36.8129 50.5768 35.6954 51.2871 34.4643 51.73C33.7747 52.0467 32.9157 52.4397 31.8074 53.0015C31.1324 53.3439 30.6073 53.6265 30.1545 53.8661C29.2189 54.4003 28.2373 54.8493 27.2213 55.2078C26.3425 55.5776 25.4152 55.8198 24.4678 55.9272C23.8188 55.9691 23.1672 55.9442 22.5233 55.8529C21.8156 55.7689 21.4671 55.7418 21.24 55.9918C20.9678 56.2953 20.9803 56.9057 21.2748 57.6668C21.4821 58.1151 21.7869 58.5114 22.1672 58.8266C22.5476 59.1418 22.9937 59.3679 23.4727 59.4883C23.8854 59.6073 24.3196 59.631 24.7428 59.5578C25.0261 59.5286 25.3795 59.4932 25.865 59.4842C26.5706 59.4628 27.2759 59.5328 27.9636 59.6925C28.5636 59.8236 29.1717 59.9147 29.7838 59.9654C31.0982 59.9992 32.4136 59.9666 33.7248 59.8675L34.0323 59.8557C35.4495 59.7345 36.8734 59.7065 38.2943 59.7717C38.9679 59.8411 39.8845 59.98 41.7088 60.246C42.4283 60.3529 42.722 60.3994 42.8685 60.4224C42.9866 60.4418 43.0033 60.4446 43.0845 60.4522C44.1421 60.5508 46.3393 60.7543 47.5226 59.6293C48.4157 58.7821 48.4254 57.4501 48.4317 56.3814C48.4212 55.208 48.1548 54.051 47.6511 52.9911C47.3581 52.2839 47.1042 51.561 46.8907 50.8258C46.4674 49.1411 46.273 47.4069 46.3129 45.6703L46.3039 45.3675C46.2528 43.7303 46.3867 42.0926 46.7032 40.4855C46.8615 39.4932 47.0594 38.2564 47.2774 36.5064C47.8059 32.2703 48.1241 29.198 47.7435 25.2564C47.3699 21.3651 45.9716 17.6424 43.6908 14.4675L43.9963 14.248C46.3153 17.4772 47.7376 21.263 48.1185 25.2203C48.5019 29.2036 48.1824 32.2939 47.6504 36.5557C47.431 38.3133 47.2337 39.5529 47.074 40.5487C46.7616 42.1322 46.6292 43.7459 46.679 45.3592L46.688 45.6612C46.6483 47.3675 46.8379 49.0714 47.2518 50.7272C47.4621 51.4496 47.7117 52.1599 47.9997 52.855C48.5198 53.96 48.7949 55.1643 48.806 56.3856C48.7991 57.5265 48.79 58.9467 47.781 59.9043C46.8504 60.6383 45.6791 60.9982 44.497 60.9133Z" fill="#2D2D2D"/>
<path d="M42.8441 53.6545C43.5935 53.3273 44.4389 53.2955 45.2107 53.5656C45.7785 53.7817 46.271 54.1587 46.6279 54.6503C46.9849 55.1419 47.1908 55.7269 47.2205 56.3337C47.267 57.8059 46.1525 59.2504 45.3455 59.1913C44.9004 59.1587 44.817 58.7052 44.1843 58.3879C43.8072 58.236 43.4033 58.1616 42.9968 58.1693C42.5903 58.1769 42.1895 58.2664 41.8184 58.4323C42.16 56.8411 42.502 55.2485 42.8441 53.6545Z" fill="#FF8E93"/>
<path d="M45.3916 59.3815C45.3708 59.3815 45.3498 59.3815 45.3304 59.3815C45.2009 59.3647 45.0759 59.3224 44.9628 59.2571C44.8497 59.1918 44.7507 59.1047 44.6714 59.0009C44.5086 58.821 44.3151 58.6714 44.0999 58.5593C43.7463 58.4153 43.3669 58.3457 42.9853 58.3549C42.6037 58.3641 42.2281 58.4519 41.8819 58.6127L41.5625 58.7287L42.6811 53.5238L42.77 53.4856C43.5638 53.1387 44.4597 53.1054 45.277 53.3926C45.8783 53.6241 46.3995 54.0249 46.7778 54.5464C47.156 55.068 47.3751 55.688 47.4083 56.3315C47.4134 56.8084 47.324 57.2817 47.1452 57.7239C46.9664 58.1661 46.7018 58.5685 46.3666 58.9079C46.1133 59.1835 45.7648 59.3527 45.3916 59.3815ZM43.1694 57.9752C43.5015 57.9656 43.8316 58.0285 44.1368 58.1596C44.4421 58.2907 44.7151 58.4868 44.9367 58.7343C45.1076 58.9086 45.1972 58.9926 45.3535 59.0044C45.6421 58.9841 45.9111 58.8512 46.1027 58.6343C46.4001 58.332 46.635 57.9739 46.7937 57.5807C46.9525 57.1874 47.0319 56.7667 47.0277 56.3426C46.998 55.7735 46.8039 55.2252 46.469 54.7641C46.1342 54.3031 45.6728 53.9489 45.1409 53.7447C44.4461 53.4992 43.6856 53.5165 43.0028 53.7933L42.0652 58.153C42.4234 58.0408 42.7961 57.9811 43.1715 57.9759L43.1694 57.9752Z" fill="#2D2D2D"/>
<path d="M37.396 53.1193C37.5231 52.6131 37.8718 51.2193 38.601 51.1103C39.2704 51.0096 39.5265 52.0971 40.8335 52.4943C41.83 52.7971 42.1732 52.3249 42.7537 52.6728C43.7086 53.2443 43.7906 55.2339 43.2003 56.6464C43.0593 57.0659 42.8356 57.453 42.5426 57.7848C42.2497 58.1166 41.8935 58.3864 41.4947 58.5784C40.8379 58.7936 40.132 58.8095 39.4661 58.6242C38.8002 58.4388 38.204 58.0604 37.7529 57.5367C37.1771 56.1373 37.0524 54.5931 37.396 53.1193Z" fill="#FF8E93"/>
<path d="M40.4464 58.9682C39.9126 58.9503 39.3878 58.8264 38.9024 58.6036C38.417 58.3807 37.9808 58.0634 37.6193 57.6702L37.5785 57.605C36.9964 56.1669 36.8693 54.5848 37.2145 53.0723C37.3534 52.5168 37.72 51.0508 38.5749 50.9195C38.9915 50.8556 39.2604 51.1279 39.5736 51.4397C39.9294 51.8406 40.3844 52.1407 40.893 52.3098C41.2301 52.4142 41.5872 52.4366 41.9347 52.3751C42.2469 52.3002 42.576 52.3471 42.8548 52.5063C43.9305 53.1501 43.9945 55.2411 43.3785 56.7147C43.229 57.1572 42.992 57.5652 42.6819 57.9145C42.3717 58.2637 41.9946 58.5472 41.5729 58.748C41.2155 58.8945 40.8327 58.9693 40.4464 58.9682ZM37.9165 57.4362C38.3408 57.9253 38.9003 58.2782 39.5245 58.4504C40.1487 58.6226 40.8098 58.6066 41.4249 58.4043C41.8002 58.2209 42.1353 57.9646 42.4106 57.6505C42.6859 57.3363 42.8959 56.9705 43.0284 56.5744C43.5728 55.2723 43.5298 53.3543 42.6596 52.8341C42.4527 52.7197 42.2094 52.6904 41.9811 52.7522C41.5808 52.8212 41.1699 52.7943 40.782 52.6737C40.2146 52.4886 39.7065 52.1562 39.3097 51.7105C39.0131 51.4154 38.8478 51.2661 38.6318 51.2938C38.2291 51.355 37.8749 51.9841 37.5812 53.1633C37.2558 54.5883 37.3726 56.0786 37.9159 57.4355L37.9165 57.4362Z" fill="#2D2D2D"/>
<path d="M37.9864 18.4676C39.4816 19.0315 39.5205 22.4461 39.5274 22.9503C39.5274 22.9503 39.6079 28.4461 41.7566 44.8114C41.9225 45.7068 41.8216 46.6312 41.4663 47.4697C41.2516 47.9389 40.971 48.375 40.633 48.7649C40.4363 48.9429 40.2673 49.1493 40.1317 49.3774C39.9885 49.5705 39.915 49.8065 39.9233 50.0468C39.9581 50.2634 40.0691 50.4605 40.2364 50.6024C40.4025 50.7503 40.6008 50.8575 40.8154 50.9157C41.0301 50.974 41.2552 50.9815 41.4732 50.9378C42.3232 50.7593 42.4678 49.7649 42.9157 49.8156C43.3636 49.8662 43.3323 50.9156 43.9733 51.0697C44.1672 51.0872 44.3622 51.0551 44.5403 50.9765C44.7183 50.8979 44.8737 50.7754 44.9914 50.6204C45.1639 50.4135 45.2672 50.1578 45.2871 49.8892C45.319 49.3975 45.0421 49.0558 44.7108 48.5565C44.3796 48.0572 44.1552 47.4975 43.8372 46.9892C42.8073 45.3287 43.0372 40.8871 42.9671 38.3371C42.9407 37.3753 42.6817 35.7051 42.1636 32.3649C42.1636 32.3649 41.1664 25.9371 41.0414 21.5274C41.0303 21.1468 40.992 18.9635 41.7323 18.1593C42.0442 17.8359 42.2963 17.4597 42.4768 17.0482C42.6294 16.7122 42.7077 16.3471 42.706 15.9781C42.7018 15.7114 42.6198 15.4517 42.4702 15.2309C42.3205 15.01 42.1097 14.8377 41.8635 14.735C41.6024 14.6226 41.3164 14.5806 41.034 14.6133C40.7515 14.646 40.4825 14.7521 40.2539 14.9211C39.6983 15.3774 39.9581 16.0815 39.581 16.1996C39.1845 16.3246 38.8865 15.6496 37.899 15.2968C37.5964 15.1667 37.2695 15.103 36.9402 15.1098C36.6109 15.1166 36.2869 15.1939 35.9899 15.3364C35.7727 15.4625 35.5879 15.6375 35.4501 15.8474C35.3123 16.0574 35.2255 16.2967 35.1963 16.5461C35.1963 17.3364 36.0802 17.8364 36.3927 18.0128C36.8998 18.2391 37.4363 18.3922 37.9864 18.4676Z" fill="#FF8E93"/>
<path d="M44.1228 51.2868C44.0559 51.287 43.9893 51.2793 43.9243 51.2639C43.484 51.1584 43.3047 50.7507 43.1603 50.4229C43.0742 50.2271 42.9861 50.025 42.8895 50.0146H42.8826C42.7972 50.0146 42.6833 50.1688 42.5632 50.332C42.3296 50.7251 41.953 51.0127 41.5124 51.1348C41.262 51.1845 41.0036 51.1755 40.7574 51.1082C40.5112 51.041 40.2839 50.9174 40.0936 50.7473C39.8926 50.573 39.7601 50.3331 39.7194 50.0702C39.7059 49.786 39.789 49.5057 39.9554 49.275C40.0976 49.0358 40.2744 48.8189 40.4798 48.6313C40.8059 48.2527 41.0772 47.8303 41.286 47.3764C41.617 46.5849 41.7118 45.7144 41.559 44.8702C39.4298 28.6493 39.3256 23.0091 39.3242 22.9549C39.2902 20.5813 38.7631 18.9799 37.9152 18.6598C37.7687 18.6113 37.6174 18.5789 37.4639 18.5632C37.0514 18.5213 36.6518 18.3951 36.2901 18.1924C35.9679 18.0098 34.9888 17.4563 34.9902 16.5473C35.02 16.2625 35.1164 15.9887 35.2717 15.7481C35.427 15.5075 35.6366 15.3069 35.8839 15.1625C36.2045 14.997 36.5584 14.906 36.9191 14.8962C37.2798 14.8865 37.6381 14.9583 37.9672 15.1063C38.3752 15.2581 38.7533 15.4808 39.084 15.7639C39.3021 15.9361 39.4312 16.0313 39.5207 16.0042C39.5756 15.9868 39.6 15.8924 39.6409 15.6952C39.6812 15.3344 39.8545 15.0016 40.127 14.7618C40.3841 14.5681 40.6879 14.4462 41.0076 14.4085C41.3273 14.3708 41.6513 14.4187 41.9464 14.5473C42.2286 14.6661 42.4702 14.8645 42.6415 15.1183C42.8128 15.3721 42.9065 15.6703 42.9111 15.9764C42.9136 16.3733 42.8297 16.7659 42.6652 17.1271C42.4796 17.5508 42.221 17.9387 41.9013 18.2729C41.2068 19.0278 41.2311 21.1098 41.2429 21.5202C41.3659 25.866 42.3541 32.2674 42.3631 32.332C42.8826 35.675 43.1422 37.3542 43.1693 38.3285C43.1825 38.8271 43.1846 39.3966 43.1874 40.0028C43.1971 42.4924 43.2096 45.5903 44.0082 46.8778C44.1568 47.1167 44.286 47.3674 44.4173 47.6188C44.5572 47.9004 44.7116 48.1746 44.8798 48.4403L44.9964 48.6146C45.3071 48.971 45.4815 49.4259 45.4888 49.8986C45.4657 50.2102 45.346 50.5068 45.1465 50.7473C45.0223 50.903 44.8673 51.0313 44.6911 51.1241C44.5149 51.217 44.3214 51.2724 44.1228 51.2868ZM42.879 49.6063C42.898 49.6052 42.917 49.6052 42.936 49.6063C43.2659 49.6431 43.4083 49.9695 43.5346 50.2563C43.661 50.5431 43.7756 50.8063 44.0207 50.8646C44.1775 50.8724 44.3338 50.8417 44.4759 50.7751C44.6181 50.7085 44.7417 50.6081 44.8361 50.4827C44.9801 50.3089 45.0664 50.0946 45.0832 49.8695C45.0665 49.4869 44.9163 49.1224 44.6589 48.8389L44.5409 48.6618C44.364 48.3844 44.2018 48.0979 44.0548 47.8035C43.9305 47.5625 43.8049 47.3209 43.6618 47.0903C42.8021 45.7014 42.7903 42.541 42.7798 40.0007C42.7798 39.3973 42.7749 38.8306 42.7617 38.3341C42.736 37.3854 42.4769 35.7153 41.961 32.3882C41.9505 32.3243 40.9604 25.8979 40.836 21.5257C40.818 20.9111 40.8194 18.8417 41.5812 18.0146C41.8776 17.7093 42.1179 17.3541 42.2909 16.9653C42.4328 16.6548 42.5053 16.3171 42.5033 15.9757C42.4986 15.7485 42.428 15.5276 42.2999 15.34C42.1718 15.1523 41.9918 15.0059 41.7819 14.9188C41.5552 14.8214 41.3069 14.7847 41.0617 14.8124C40.8165 14.84 40.5826 14.931 40.3832 15.0764C40.1853 15.2587 40.0627 15.5084 40.0395 15.7764C39.9895 16.0229 39.9326 16.3014 39.643 16.3924C39.3409 16.4868 39.1048 16.2993 38.8312 16.0827C38.5354 15.8277 38.1967 15.6269 37.8311 15.4896C37.5585 15.3632 37.2611 15.2995 36.9607 15.3033C36.6602 15.3072 36.3642 15.3784 36.095 15.5118C35.9084 15.6208 35.7492 15.7707 35.6289 15.9501C35.5086 16.1296 35.4304 16.334 35.4005 16.5479C35.4005 17.2181 36.1936 17.6681 36.4922 17.8368C36.8096 18.0155 37.161 18.1255 37.5235 18.1598C37.7068 18.1791 37.8873 18.219 38.0617 18.2785C39.4658 18.8084 39.7125 21.425 39.734 22.9375C39.734 23.0028 39.8408 28.6278 41.9616 44.7854C42.1321 45.7219 42.0239 46.6877 41.6505 47.5632C41.4258 48.0525 41.1319 48.507 40.7777 48.9125C40.5943 49.0773 40.4367 49.2688 40.3103 49.4806C40.1902 49.636 40.1258 49.8272 40.127 50.0236C40.1569 50.1898 40.2445 50.34 40.3742 50.4479C40.5163 50.5748 40.686 50.6668 40.8698 50.7168C41.0536 50.7668 41.2464 50.7734 41.4332 50.7361C41.775 50.6322 42.0639 50.401 42.2402 50.0903C42.4124 49.8528 42.5943 49.607 42.879 49.607V49.6063Z" fill="#2D2D2D"/>
<path d="M36.5033 52.8503C35.2206 52.3107 34.3441 54.2211 30.9518 55.544C27.2844 56.9732 23.7213 56.5239 23.6289 57.4489C23.6459 57.6725 23.7408 57.8831 23.897 58.044C24.134 58.2542 24.4136 58.4109 24.7167 58.5035C25.0197 58.596 25.3392 58.6221 25.6532 58.5801C27.9373 58.5496 29.0788 58.5371 29.1656 58.5204C33.8594 57.6301 36.3685 59.1704 37.5303 57.6273C38.5512 56.2725 37.8637 53.4225 36.5033 52.8503Z" fill="#FF8E93"/>
<path d="M25.4971 58.7695C25.18 58.7993 24.8601 58.7607 24.5592 58.6564C24.2583 58.552 23.9831 58.3843 23.7525 58.1646C23.5556 57.9709 23.4437 57.7069 23.4414 57.4306C23.5025 56.823 24.4027 56.7035 25.895 56.5042C27.5978 56.3293 29.273 55.948 30.8838 55.3688C32.0848 54.8888 33.2153 54.2482 34.2443 53.4646C35.1776 52.7924 35.7949 52.3473 36.5755 52.6778C36.9539 52.8882 37.2815 53.1789 37.5353 53.5297C37.789 53.8804 37.9628 54.2825 38.0442 54.7077C38.2085 55.2093 38.2612 55.7409 38.1984 56.265C38.1355 56.7891 37.9587 57.2931 37.6804 57.7417C36.9936 58.6535 35.8804 58.5841 34.3367 58.4869C32.6216 58.3288 30.893 58.4026 29.1977 58.7063C29.1095 58.723 28.5727 58.7306 26.5339 58.757L25.6533 58.7681L25.4971 58.7695ZM36.0596 52.9452C35.6332 52.9452 35.1859 53.2494 34.4623 53.7695C33.4076 54.5716 32.2492 55.2274 31.0186 55.7188C29.3799 56.3091 27.6754 56.6976 25.9428 56.8757C24.8644 57.0202 23.845 57.1535 23.8144 57.4674C23.8075 57.5299 23.829 57.6723 24.0394 57.923C24.2599 58.1095 24.5172 58.2476 24.7945 58.3283C25.0718 58.4091 25.363 58.4307 25.6492 58.3917L26.5296 58.3799C28.0921 58.3598 29.0352 58.3473 29.1338 58.3348C30.8572 58.0253 32.6147 57.9501 34.3582 58.1112C35.886 58.207 36.8123 58.2646 37.3783 57.5139C37.6219 57.1113 37.775 56.6606 37.8269 56.1929C37.8788 55.7252 37.8284 55.2518 37.679 54.8056C37.6094 54.4368 37.4618 54.087 37.2462 53.7797C37.0306 53.4725 36.7521 53.2147 36.429 53.0237C36.3123 52.9732 36.1867 52.9467 36.0596 52.9459V52.9452Z" fill="#2D2D2D"/>
<path opacity="0.05" d="M29.7229 58.1077C26.6687 56.0121 23.8161 53.6368 21.2021 51.0125C18.6418 48.4435 16.3215 45.646 14.2702 42.6549C12.5146 40.8576 11.522 38.4512 11.5 35.9389C11.4969 34.6922 11.7401 33.4572 12.2154 32.3047C12.6908 31.1522 13.3891 30.1049 14.2702 29.2229C18.7045 23.4021 23.9021 18.2045 29.7229 13.7702C31.5206 12.0152 33.9268 11.0228 36.4389 11C37.6856 10.9969 38.9207 11.24 40.0732 11.7153C41.2257 12.1907 42.273 12.889 43.1549 13.7702C45.8853 15.9221 48.4924 18.226 50.9639 20.6709C53.6856 23.3614 56.2384 26.2175 58.6077 29.2229C60.3637 31.0199 61.3564 33.4265 61.3778 35.9389C61.3809 37.1856 61.1378 38.4206 60.6624 39.5731C60.1871 40.7256 59.4888 41.7729 58.6077 42.6549C56.1272 45.8074 53.444 48.795 50.575 51.5986C48.2185 53.8983 45.7414 56.0711 43.1542 58.1077C42.0098 59.2316 40.6073 60.0579 39.0695 60.5139C38.2143 60.7608 37.3283 60.8843 36.4382 60.8806C35.3205 60.8546 34.2154 60.6385 33.1702 60.2417C31.894 59.7598 30.7233 59.0351 29.7229 58.1077Z" fill="url(#paint0_linear_234_60588)" stroke="#707070" stroke-width="0.277778"/>
<defs>
<linearGradient id="paint0_linear_234_60588" x1="36.4389" y1="11" x2="36.4389" y2="60.8807" gradientUnits="userSpaceOnUse">
<stop stop-color="#1778F2"/>
<stop offset="1" stop-color="#F40009"/>
</linearGradient>
</defs>
</svg>
