<svg width="73" height="72" viewBox="0 0 73 72" fill="none" xmlns="http://www.w3.org/2000/svg">
<rect x="1" y="0.5" width="71" height="71" rx="11.5" fill="white" stroke="#E0E0E0"/>
<path opacity="0.05" d="M29.422 57.3301C26.4181 55.2691 23.6125 52.9331 21.0416 50.3521C18.5236 47.8254 16.2416 45.0741 14.2241 42.1323C12.4976 40.3646 11.5216 37.9979 11.5 35.5271C11.497 34.3011 11.7361 33.0866 12.2036 31.9532C12.671 30.8199 13.3577 29.79 14.2241 28.9226C18.5853 23.1975 23.6971 18.0855 29.422 13.7241C31.19 11.9982 33.5566 11.0222 36.0272 11C37.2534 10.9968 38.468 11.2358 39.6015 11.7033C40.735 12.1708 41.7651 12.8575 42.6325 13.7241C45.3178 15.8402 47.8819 18.1057 50.3127 20.5098C52.9895 23.1563 55.5002 25.9657 57.8304 28.9219C59.5572 30.689 60.5333 33.0557 60.5544 35.5264C60.5576 36.7525 60.3186 37.9672 59.8511 39.1007C59.3836 40.2341 58.6969 41.2642 57.8304 42.1316C55.3908 45.2323 52.7519 48.1707 49.9303 50.9282C47.6129 53.19 45.1768 55.327 42.6325 57.3301C41.5068 58.4344 40.1276 59.246 38.6156 59.6937C37.7746 59.9367 36.9033 60.0583 36.0279 60.0548C34.9287 60.0292 33.8418 59.8167 32.8139 59.4264C31.5584 58.9534 30.4065 58.2415 29.422 57.3301Z" fill="url(#paint0_linear_234_60523)"/>
<path d="M29.5817 60.1604C30.1386 60.1799 30.6463 60.1508 31.0185 60.1294C31.1083 60.1243 31.127 60.1222 31.2578 60.1061C31.4032 60.0877 31.6947 60.0525 32.4088 59.972C34.2212 59.7688 35.1319 59.6663 35.7944 59.6219C37.1878 59.6083 38.5807 59.6852 39.9641 59.8521L40.2686 59.8745C41.5799 60.0216 42.898 60.0998 44.2175 60.1086C44.8408 60.0792 45.4615 60.0088 46.0756 59.898C46.7349 59.7672 47.4085 59.7227 48.0793 59.7656C48.5457 59.7909 48.886 59.8373 49.1598 59.8724C49.6237 59.968 50.1032 59.958 50.5627 59.8429C51.0974 59.7265 51.599 59.4913 52.0305 59.1548C52.4621 58.8183 52.8125 58.3891 53.0558 57.899C53.2772 57.3836 53.5752 56.4304 53.0929 55.8539C52.7416 55.4349 52.2237 55.4788 51.5076 55.5357C50.8909 55.6011 50.2691 55.6038 49.6519 55.5437C48.7491 55.4059 47.8704 55.1415 47.0416 54.7582C46.065 54.3734 45.1245 53.9022 44.2317 53.3501C43.7892 53.0927 43.2772 52.7956 42.6166 52.4313C41.5305 51.8328 40.6893 51.4105 40.014 51.0711C38.5149 50.319 37.8307 49.9752 36.9543 48.9823C36.3767 48.3693 35.9384 47.6387 35.6694 46.8405C35.3913 45.8429 35.3523 44.7937 35.5554 43.7782C36.452 36.7004 37.6822 33.1814 37.6952 33.1467C39.1939 28.9298 40.912 23.4304 43.1044 15.8397L42.7456 15.7368C40.5568 23.3193 38.8411 28.812 37.3433 33.022C37.3311 33.0567 36.0878 36.6077 35.1855 43.7315C34.9762 44.8015 35.0204 45.9057 35.3145 46.9556C35.6025 47.801 36.0661 48.576 36.6748 49.2296C37.5582 50.1803 38.6414 50.9233 39.8464 51.4051C40.519 51.743 41.3569 52.1624 42.4362 52.7579C43.0934 53.1207 43.6041 53.4191 44.0447 53.6724C44.9537 54.2344 45.9112 54.7136 46.9059 55.1043C47.7643 55.5014 48.6752 55.7738 49.6106 55.9131C50.2526 55.9772 50.8994 55.9751 51.5409 55.907C52.2453 55.8483 52.5918 55.8335 52.8082 56.0893C53.0675 56.3996 53.0339 57.0043 52.7156 57.7485C52.4945 58.1858 52.1785 58.568 51.7905 58.8673C51.4026 59.1665 50.9526 59.3752 50.4736 59.478C50.0603 59.5815 49.6289 59.59 49.2119 59.5027C48.9321 59.4639 48.5829 59.4165 48.102 59.3907C47.4033 59.345 46.7016 59.3899 46.0143 59.5244C45.415 59.6335 44.809 59.7027 44.2004 59.7317C42.8962 59.7196 41.5933 59.6415 40.2969 59.4978L39.9925 59.4754C38.5917 59.3061 37.1814 59.2288 35.7705 59.2441C35.1003 59.2895 34.1868 59.3954 32.369 59.5957C31.6521 59.6767 31.3591 59.7126 31.2131 59.7302C31.0954 59.7454 31.0787 59.7476 30.9979 59.7523C29.946 59.8134 27.7608 59.9388 26.6268 58.7824C25.7709 57.9115 25.8075 56.5908 25.8384 55.5311C25.8895 54.3682 26.1938 53.2304 26.73 52.1973C27.0451 51.5063 27.3218 50.7986 27.559 50.0772C28.0372 48.4217 28.2901 46.7093 28.3108 44.9863L28.3303 44.6865C28.4379 43.0653 28.362 41.4371 28.104 39.833C27.9815 38.8437 27.8283 37.6108 27.673 35.8683C27.2962 31.6506 27.0875 28.5939 27.6016 24.6996C28.1071 20.855 29.6229 17.2131 31.9942 14.145L31.6988 13.9168C29.2877 17.0375 27.7464 20.741 27.2313 24.6508C26.7129 28.5863 26.9222 31.6609 27.3015 35.9043C27.458 37.6543 27.6105 38.89 27.7342 39.8827C27.9889 41.4634 28.0644 43.0677 27.9589 44.6652L27.9394 44.9644C27.9195 46.6572 27.6723 48.3398 27.2044 49.9669C26.9709 50.6757 26.6988 51.3712 26.3891 52.0502C25.8352 53.1276 25.5206 54.3119 25.4672 55.5222C25.4344 56.6535 25.3941 58.0617 26.3611 59.0461C27.2582 59.806 28.4068 60.2034 29.5817 60.1604Z" fill="#2D2D2D"/>
<g style="mix-blend-mode:multiply" opacity="0.5">
<path d="M31.8189 33.0731C32.1625 33.0744 32.5019 33.1484 32.8148 33.2902C33.1278 33.4319 33.4072 33.6383 33.6348 33.8957C34.3843 34.8901 33.7741 36.2687 33.6919 36.4525C33.2241 37.4711 31.9098 38.7836 30.3092 38.3245C29.6133 38.124 29.0254 37.6555 28.6748 37.0217C28.3243 36.3879 28.2398 35.6409 28.4399 34.9448C28.9127 33.3016 30.8461 32.9976 31.8189 33.0731Z" fill="#FF8E93"/>
</g>
<g style="mix-blend-mode:multiply" opacity="0.5">
<path d="M38.6988 53.6258C39.0423 53.6272 39.3818 53.7011 39.6947 53.8429C40.0077 53.9847 40.2871 54.191 40.5147 54.4484C41.2642 55.4428 40.6539 56.8214 40.5718 57.0052C40.104 58.0238 38.7897 59.3363 37.1891 58.8772C36.4931 58.6768 35.9052 58.2082 35.5547 57.5744C35.2042 56.9407 35.1197 56.1936 35.3198 55.4975C35.7926 53.8543 37.726 53.5504 38.6988 53.6258Z" fill="#FF8E93"/>
</g>
<path d="M37.8175 15.2649C37.8175 15.2649 29.1952 22.3084 30.6933 36.735C32.1915 51.1617 31.2694 55.5052 29.3447 57.0392" stroke="#FF8E93" stroke-width="0.689119" stroke-linecap="round"/>
<path d="M31.4141 48.4609C32.0294 53.6838 35.8761 57.1211 49.8908 57.6014" stroke="#FF8E93" stroke-width="0.689119" stroke-linecap="round"/>
<path d="M38.6699 56.2061C38.6699 56.2061 37.5073 57.8827 34.5352 57.1343" stroke="#FF8E93" stroke-width="0.689119" stroke-linecap="round"/>
<path d="M30.4238 35.5272C30.4238 35.5272 32.6979 37.0887 34.192 29.3251C35.686 21.5615 41.8247 17.8637 40.5615 18.9049" stroke="#FF8E93" stroke-width="0.689119"/>
<path d="M30.9568 27.1945C30.9568 27.1945 28.2926 24.5462 30.75 19.1201" stroke="#FF8E93" stroke-width="0.689119" stroke-linecap="round"/>
<defs>
<linearGradient id="paint0_linear_234_60523" x1="36.0272" y1="11" x2="36.0272" y2="60.0549" gradientUnits="userSpaceOnUse">
<stop stop-color="#1778F2"/>
<stop offset="1" stop-color="#F40009"/>
</linearGradient>
</defs>
</svg>
